<svg width="416" height="422" viewBox="0 0 416 422" fill="none" xmlns="http://www.w3.org/2000/svg">
<path d="M101.14 411.65H0.539978V10.79H101.14V53.35V175.62C101.14 193.69 102.82 211.87 106.17 230.18C109.53 248.5 115.2 265 123.19 279.71C131.19 294.41 141.89 306.41 155.3 315.69C168.72 324.98 185.75 329.62 206.37 329.62C230.63 329.62 250.87 323.8 267.12 312.16C283.37 300.52 295.5 285.9 303.49 268.29C311.49 250.68 315.36 231.66 315.1 211.22C314.85 190.78 310.59 171.76 302.33 154.16C294.08 136.56 281.96 121.94 265.96 110.29C249.97 98.65 230.11 92.82 206.37 92.82C191.41 92.82 175.94 95.07 159.94 99.55C143.96 104.05 131.57 112.89 122.79 126.09C118.15 117.84 115.96 106.88 116.21 93.2C116.48 79.54 120.08 65.99 127.04 52.57C134 39.16 144.97 27.42 159.93 17.36C174.9 7.30002 194.75 1.76003 219.52 0.720031C244.8 -0.309969 269.18 4.20004 292.65 14.26C316.13 24.32 337.03 38.6401 355.33 57.2101C373.65 75.7801 388.22 98.2201 399.05 124.53C409.88 150.84 415.3 179.47 415.3 210.43C415.3 242.93 410.27 271.95 400.21 297.49C390.15 323.03 376.74 344.96 359.97 363.27C343.21 381.59 323.86 395.65 301.93 405.44C280.01 415.23 257.43 420.53 234.22 421.3C211.01 422.07 187.92 418.07 164.96 409.3C142.01 400.53 120.73 386.61 101.12 367.51V411.65H101.14Z" fill="black"/>
</svg>
