<svg width="416" height="422" viewBox="0 0 416 422" fill="none" xmlns="http://www.w3.org/2000/svg">
<path d="M314.86 367.54C295.25 386.63 273.97 400.56 251.02 409.33C228.06 418.1 204.98 422.1 181.76 421.33C158.54 420.56 135.97 415.26 114.05 405.47C92.12 395.68 72.77 381.61 56.01 363.3C39.24 344.99 25.83 323.06 15.77 297.52C5.71002 271.98 0.679993 242.96 0.679993 210.46C0.679993 179.51 6.10005 150.87 16.9301 124.56C27.7601 98.2501 42.33 75.8101 60.65 57.2401C78.96 38.6701 99.85 24.3501 123.33 14.2901C146.8 4.23007 171.18 -0.279939 196.46 0.750061C221.22 1.79006 241.08 7.33008 256.05 17.3901C271.01 27.4501 281.97 39.19 288.94 52.6C295.9 66.02 299.51 79.56 299.77 93.23C300.02 106.91 297.84 117.87 293.19 126.12C284.41 112.92 272.03 104.08 256.04 99.5801C240.04 95.0901 224.57 92.85 209.61 92.85C185.87 92.85 166.01 98.6801 150.02 110.32C134.02 121.96 121.9 136.58 113.65 154.19C105.39 171.8 101.13 190.81 100.88 211.25C100.61 231.7 104.48 250.72 112.49 268.32C120.48 285.92 132.61 300.54 148.86 312.19C165.11 323.83 185.35 329.65 209.61 329.65C230.24 329.65 247.26 325.01 260.68 315.72C274.09 306.43 284.79 294.44 292.79 279.74C300.78 265.04 306.45 248.53 309.81 230.21C313.16 211.9 314.84 193.72 314.84 175.65V53.35V10.7901H415.44V411.65H314.84V367.54H314.86Z" fill="black"/>
</svg>
