<svg width="1261" height="268" viewBox="0 0 1261 268" fill="none" xmlns="http://www.w3.org/2000/svg">
<path d="M47.28 262.68H0V38.65C0 28.4 4.19001 19.51 12.57 12.01C20.95 4.51001 32.52 0.51 47.28 0V151.23C47.28 159.74 48.09 168.3 49.72 176.93C51.34 185.56 54.04 193.38 57.79 200.38C61.54 207.39 66.67 213.08 73.18 217.45C79.68 221.83 87.81 224.02 97.57 224.02C109.07 224.02 118.64 221.27 126.28 215.76C133.91 210.26 139.6 203.38 143.35 195.12C147.1 186.87 148.91 177.86 148.79 168.1C148.66 158.34 146.66 149.34 142.79 141.08C138.91 132.82 133.16 125.95 125.53 120.44C117.9 114.94 108.46 112.18 97.2 112.18C90.45 112.18 83.25 113.25 75.62 115.37C67.99 117.5 62.05 121.56 57.8 127.57C55.55 123.57 54.36 118.32 54.24 111.81C54.11 105.31 55.68 98.93 58.93 92.67C62.18 86.42 67.31 80.91 74.32 76.16C81.32 71.41 91.08 68.78 103.59 68.28C115.6 68.03 127.17 70.29 138.3 75.03C149.43 79.79 159.31 86.54 167.94 95.29C176.57 104.05 183.45 114.62 188.58 127C193.7 139.38 196.27 152.96 196.27 167.71C196.27 182.97 193.89 196.67 189.14 208.8C184.38 220.94 178.01 231.26 170 239.76C161.99 248.27 152.86 254.9 142.61 259.65C132.35 264.4 121.72 266.97 110.71 267.34C99.7 267.72 88.69 265.9 77.69 261.9C66.68 257.9 56.55 251.27 47.29 242.01V262.68H47.28Z" fill="black"/>
<path d="M357.22 241.29C347.71 250.55 337.39 257.3 326.26 261.55C315.13 265.8 303.93 267.74 292.67 267.37C281.41 266.99 270.47 264.43 259.84 259.68C249.2 254.93 239.82 248.11 231.7 239.23C223.57 230.35 217.07 219.72 212.19 207.33C207.31 194.95 204.87 180.87 204.87 165.11C204.87 150.1 207.5 136.22 212.75 123.46C218 110.7 225.07 99.82 233.95 90.81C242.83 81.8 252.96 74.86 264.35 69.98C275.73 65.1 287.55 62.91 299.81 63.41C311.82 63.91 321.45 66.6 328.7 71.48C335.95 76.36 341.27 82.05 344.65 88.55C348.03 95.06 349.77 101.63 349.9 108.25C350.02 114.88 348.96 120.2 346.71 124.2C342.45 117.8 336.45 113.51 328.7 111.33C320.94 109.15 313.44 108.06 306.18 108.06C294.67 108.06 285.04 110.89 277.29 116.53C269.53 122.18 263.65 129.27 259.65 137.8C255.65 146.34 253.58 155.56 253.46 165.47C253.33 175.38 255.21 184.61 259.09 193.14C262.97 201.68 268.85 208.77 276.73 214.41C284.61 220.06 294.43 222.88 306.19 222.88C316.19 222.88 324.45 220.63 330.96 216.13C337.46 211.63 342.65 205.81 346.53 198.68C350.41 191.55 353.16 183.55 354.79 174.66C356.41 165.78 357.23 156.96 357.23 148.2V88.91V68.27H406.01V262.65H357.23V241.29H357.22Z" fill="black"/>
<path d="M471.11 68.67V161.73C471.11 166.23 471.17 171.05 471.3 176.18C471.42 181.31 471.92 186.31 472.8 191.19C473.67 196.07 475.17 200.64 477.3 204.89C479.42 209.15 482.61 212.77 486.87 215.77C489.62 217.78 492.81 219.28 496.44 220.27C500.06 221.27 503.76 221.77 507.51 221.77C511.26 221.77 514.89 221.27 518.39 220.27C521.89 219.27 525.14 217.77 528.15 215.77C532.4 213.02 535.59 209.58 537.72 205.45C539.84 201.32 541.34 196.88 542.22 192.13C543.09 187.38 543.53 182.5 543.53 177.49C543.53 172.49 543.53 167.73 543.53 163.23V107.32C543.28 93.81 547.66 83.74 556.66 77.11C565.67 70.48 577.42 67.42 591.93 67.92V150.48C592.18 167.5 591.61 181.69 590.24 193.07C588.86 204.46 586.8 213.4 584.05 219.9C576.79 236.66 566.54 248.67 553.28 255.92C540.02 263.17 524.51 266.8 506.75 266.8C487.48 266.8 470.97 262.55 457.22 254.04C443.46 245.54 433.58 231.9 427.58 213.14C425.83 207.39 424.45 199.57 423.45 189.69C422.45 179.81 421.95 168.99 421.95 157.23V68.67H471.11Z" fill="black"/>
<path d="M717 262.68H669.72V38.65C669.72 28.4 673.91 19.51 682.29 12.01C690.67 4.51001 702.24 0.51 717 0V151.23C717 159.74 717.81 168.3 719.44 176.93C721.06 185.56 723.75 193.38 727.51 200.38C731.26 207.39 736.39 213.08 742.9 217.45C749.4 221.83 757.53 224.02 767.29 224.02C778.79 224.02 788.36 221.27 796 215.76C803.63 210.26 809.32 203.38 813.07 195.12C816.82 186.87 818.63 177.86 818.51 168.1C818.38 158.34 816.38 149.34 812.51 141.08C808.63 132.82 802.88 125.95 795.25 120.44C787.62 114.94 778.18 112.18 766.92 112.18C760.17 112.18 752.97 113.25 745.34 115.37C737.71 117.5 731.77 121.56 727.52 127.57C725.27 123.57 724.08 118.32 723.96 111.81C723.83 105.31 725.4 98.93 728.65 92.67C731.9 86.42 737.03 80.91 744.04 76.16C751.04 71.41 760.8 68.78 773.31 68.28C785.32 68.03 796.89 70.29 808.02 75.03C819.15 79.79 829.03 86.54 837.67 95.29C846.3 104.05 853.18 114.62 858.31 127C863.43 139.38 866 152.96 866 167.71C866 182.97 863.62 196.67 858.87 208.8C854.11 220.94 847.74 231.26 839.73 239.76C831.72 248.27 822.59 254.9 812.34 259.65C802.08 264.4 791.45 266.97 780.44 267.34C769.43 267.72 758.42 265.9 747.42 261.9C736.41 257.9 726.28 251.27 717.02 242.01V262.68H717Z" fill="black"/>
<path d="M1025.97 241.29C1016.46 250.55 1006.14 257.3 995.01 261.55C983.88 265.8 972.68 267.74 961.43 267.37C950.17 266.99 939.23 264.43 928.6 259.68C917.96 254.93 908.58 248.11 900.46 239.23C892.33 230.35 885.82 219.72 880.95 207.33C876.07 194.95 873.63 180.87 873.63 165.11C873.63 150.1 876.26 136.22 881.51 123.46C886.76 110.7 893.83 99.82 902.71 90.81C911.59 81.8 921.72 74.86 933.11 69.98C944.49 65.1 956.31 62.91 968.57 63.41C980.58 63.91 990.21 66.6 997.46 71.48C1004.71 76.36 1010.03 82.05 1013.41 88.55C1016.79 95.06 1018.53 101.63 1018.66 108.25C1018.78 114.88 1017.72 120.2 1015.47 124.2C1011.21 117.8 1005.21 113.51 997.46 111.33C989.7 109.15 982.2 108.06 974.94 108.06C963.43 108.06 953.8 110.89 946.05 116.53C938.29 122.18 932.41 129.27 928.41 137.8C924.41 146.34 922.34 155.56 922.22 165.47C922.09 175.38 923.97 184.61 927.85 193.14C931.73 201.68 937.61 208.77 945.49 214.41C953.37 220.06 963.19 222.88 974.95 222.88C984.95 222.88 993.21 220.63 999.72 216.13C1006.22 211.63 1011.41 205.81 1015.29 198.68C1019.17 191.55 1021.92 183.55 1023.54 174.66C1025.16 165.78 1025.98 156.96 1025.98 148.2V88.91V68.27H1074.76V262.65H1025.98V241.29H1025.97Z" fill="black"/>
<path d="M1139.86 68.67V161.73C1139.86 166.23 1139.92 171.05 1140.05 176.18C1140.17 181.31 1140.67 186.31 1141.55 191.19C1142.42 196.07 1143.92 200.64 1146.05 204.89C1148.17 209.15 1151.36 212.77 1155.62 215.77C1158.37 217.78 1161.56 219.28 1165.19 220.27C1168.81 221.27 1172.51 221.77 1176.26 221.77C1180.01 221.77 1183.64 221.27 1187.14 220.27C1190.64 219.27 1193.89 217.77 1196.9 215.77C1201.15 213.02 1204.34 209.58 1206.47 205.45C1208.59 201.32 1210.09 196.88 1210.97 192.13C1211.84 187.38 1212.28 182.5 1212.28 177.49C1212.28 172.49 1212.28 167.73 1212.28 163.23V107.32C1212.03 93.81 1216.41 83.74 1225.41 77.11C1234.42 70.48 1246.17 67.42 1260.68 67.92V150.48C1260.93 167.5 1260.36 181.69 1258.99 193.07C1257.61 204.46 1255.55 213.4 1252.8 219.9C1245.54 236.66 1235.29 248.67 1222.03 255.92C1208.77 263.17 1193.26 266.8 1175.5 266.8C1156.23 266.8 1139.72 262.55 1125.97 254.04C1112.21 245.54 1102.33 231.9 1096.32 213.14C1094.57 207.39 1093.19 199.57 1092.19 189.69C1091.19 179.81 1090.69 168.99 1090.69 157.23V68.67H1139.86Z" fill="black"/>
</svg>
