<?xml version="1.0" encoding="utf-8"?>
<!-- Generator: Adobe Illustrator 24.3.0, SVG Export Plug-In . SVG Version: 6.00 Build 0)  -->
<svg version="1.1" id="Layer_1" xmlns="http://www.w3.org/2000/svg" xmlns:xlink="http://www.w3.org/1999/xlink" x="0px" y="0px"
	 viewBox="0 0 2000 1400" style="enable-background:new 0 0 2000 1400;" xml:space="preserve">
<g>
	<path d="M1324.86,856.54c-19.61,19.09-40.89,33.02-63.84,41.79c-22.96,8.77-46.04,12.77-69.26,12
		c-23.22-0.77-45.79-6.07-67.71-15.86c-21.93-9.79-41.28-23.86-58.04-42.17c-16.77-18.31-30.18-40.24-40.24-65.78
		c-10.06-25.54-15.09-54.56-15.09-87.06c0-30.95,5.42-59.59,16.25-85.9c10.83-26.31,25.4-48.75,43.72-67.32
		c18.31-18.57,39.2-32.89,62.68-42.95c23.47-10.06,47.85-14.57,73.13-13.54c24.76,1.04,44.62,6.58,59.59,16.64
		c14.96,10.06,25.92,21.8,32.89,35.21c6.96,13.42,10.57,26.96,10.83,40.63c0.25,13.68-1.93,24.64-6.58,32.89
		c-8.78-13.2-21.16-22.04-37.15-26.54c-16-4.49-31.47-6.73-46.43-6.73c-23.74,0-43.6,5.83-59.59,17.47
		c-16,11.64-28.12,26.26-36.37,43.87c-8.26,17.61-12.52,36.62-12.77,57.06c-0.27,20.45,3.6,39.47,11.61,57.07
		c7.99,17.6,20.12,32.22,36.37,43.87c16.25,11.64,36.49,17.46,60.75,17.46c20.63,0,37.65-4.64,51.07-13.93
		c13.41-9.29,24.11-21.28,32.11-35.98c7.99-14.7,13.66-31.21,17.02-49.53c3.35-18.31,5.03-36.49,5.03-54.56V542.35v-42.56h100.6
		v400.86h-100.6V856.54z"/>
	<path d="M675.14,900.65h-100.6V499.79h100.6v42.56v122.27c0,18.07,1.68,36.25,5.03,54.56c3.36,18.32,9.03,34.82,17.02,49.53
		c8,14.7,18.7,26.7,32.11,35.98c13.42,9.29,30.45,13.93,51.07,13.93c24.26,0,44.5-5.82,60.75-17.46
		c16.25-11.64,28.38-26.26,36.37-43.87c8-17.61,11.87-36.63,11.61-57.07c-0.25-20.44-4.51-39.46-12.77-57.06
		c-8.25-17.6-20.37-32.22-36.37-43.87c-15.99-11.64-35.85-17.47-59.59-17.47c-14.96,0-30.43,2.25-46.43,6.73
		c-15.98,4.5-28.37,13.34-37.15,26.54c-4.64-8.25-6.83-19.21-6.58-32.89c0.27-13.66,3.87-27.21,10.83-40.63
		c6.96-13.41,17.93-25.15,32.89-35.21c14.97-10.06,34.82-15.6,59.59-16.64c25.28-1.03,49.66,3.48,73.13,13.54
		c23.48,10.06,44.38,24.38,62.68,42.95c18.32,18.57,32.89,41.01,43.72,67.32c10.83,26.31,16.25,54.94,16.25,85.9
		c0,32.5-5.03,61.52-15.09,87.06c-10.06,25.54-23.47,47.47-40.24,65.78c-16.76,18.32-36.11,32.38-58.04,42.17
		c-21.92,9.79-44.5,15.09-67.71,15.86c-23.21,0.77-46.3-3.23-69.26-12c-22.95-8.77-44.23-22.69-63.84-41.79V900.65z"/>
</g>
</svg>
