<svg width="21" height="19" viewBox="0 0 21 19" fill="none" xmlns="http://www.w3.org/2000/svg">
<g id="Layer 23">
<path id="Vector" d="M13 12C13.7956 12 14.5587 11.6839 15.1213 11.1213C15.6839 10.5587 16 9.79565 16 9V3C16 2.20435 15.6839 1.44129 15.1213 0.87868C14.5587 0.316071 13.7956 0 13 0H3C2.20435 0 1.44129 0.316071 0.87868 0.87868C0.316071 1.44129 0 2.20435 0 3V9C0 9.79565 0.316071 10.5587 0.87868 11.1213C1.44129 11.6839 2.20435 12 3 12H4V14C3.99651 14.1769 4.04003 14.3516 4.12612 14.5062C4.2122 14.6608 4.33777 14.7898 4.49 14.88C4.64202 14.9678 4.81446 15.014 4.99 15.014C5.16554 15.014 5.33798 14.9678 5.49 14.88L10.27 12H13ZM6 12.22V11C6.00209 10.8667 5.97751 10.7344 5.92771 10.6107C5.87791 10.4871 5.80389 10.3746 5.71 10.28C5.51966 10.0965 5.26438 9.9958 5 10H3C2.73478 10 2.48043 9.89464 2.29289 9.70711C2.10536 9.51957 2 9.26522 2 9V3C2 2.73478 2.10536 2.48043 2.29289 2.29289C2.48043 2.10536 2.73478 2 3 2H13C13.2652 2 13.5196 2.10536 13.7071 2.29289C13.8946 2.48043 14 2.73478 14 3V9C14 9.26522 13.8946 9.51957 13.7071 9.70711C13.5196 9.89464 13.2652 10 13 10H10C9.82052 10.0001 9.64436 10.0484 9.49 10.14L6 12.22ZM21 9V13C21 13.7956 20.6839 14.5587 20.1213 15.1213C19.5587 15.6839 18.7956 16 18 16H17V18C17 18.1857 16.9483 18.3678 16.8507 18.5257C16.753 18.6837 16.6133 18.8114 16.4472 18.8944C16.2811 18.9775 16.0952 19.0126 15.9102 18.996C15.7252 18.9793 15.5486 18.9114 15.4 18.8L11.67 16H10C9.73478 16 9.48043 15.8946 9.29289 15.7071C9.10536 15.5196 9 15.2652 9 15C9 14.7348 9.10536 14.4804 9.29289 14.2929C9.48043 14.1054 9.73478 14 10 14H12C12.123 14.0039 12.2445 14.0276 12.36 14.07L12.46 14.13L12.6 14.2L15 16V15C15 14.7348 15.1054 14.4804 15.2929 14.2929C15.4804 14.1054 15.7348 14 16 14H18C18.2652 14 18.5196 13.8946 18.7071 13.7071C18.8946 13.5196 19 13.2652 19 13V9C19 8.73478 18.8946 8.48043 18.7071 8.29289C18.5196 8.10536 18.2652 8 18 8C17.7348 8 17.4804 7.89464 17.2929 7.70711C17.1054 7.51957 17 7.26522 17 7C17 6.73478 17.1054 6.48043 17.2929 6.29289C17.4804 6.10536 17.7348 6 18 6C18.7956 6 19.5587 6.31607 20.1213 6.87868C20.6839 7.44129 21 8.20435 21 9Z" fill="#222221"/>
</g>
</svg>
