<svg width="137" height="139" viewBox="0 0 137 139" fill="none" xmlns="http://www.w3.org/2000/svg">
<path d="M33.4586 135.571H0.310928V3.57371H33.4586V17.5881V57.8499C33.4586 63.8001 34.0122 69.7865 35.116 75.8157C36.2231 81.8482 38.0914 87.2814 40.7241 92.1252C43.3601 96.9657 46.8858 100.917 51.3043 103.973C55.7262 107.032 61.3376 108.56 68.1319 108.56C76.1256 108.56 82.7947 106.643 88.149 102.811C93.5034 98.9776 97.5002 94.1635 100.133 88.3648C102.769 82.566 104.044 76.303 103.958 69.5724C103.876 62.8418 102.472 56.5788 99.7507 50.7834C97.0324 44.988 93.0388 40.1738 87.7668 36.3376C82.4981 32.5047 75.9542 30.585 68.1319 30.585C63.2026 30.585 58.1052 31.3259 52.8332 32.8011C47.5678 34.2829 43.4853 37.1938 40.5923 41.5404C39.0634 38.8238 38.3418 35.2148 38.4242 30.7101C38.5132 26.2121 39.6994 21.7503 41.9927 17.3313C44.286 12.9155 47.9006 9.04972 52.8299 5.73711C57.7626 2.4245 64.3031 0.600258 72.4648 0.257801C80.7946 -0.0813635 88.8278 1.40372 96.5612 4.71633C104.298 8.02895 111.184 12.7443 117.214 18.8592C123.251 24.974 128.051 32.3632 131.62 41.0267C135.188 49.6902 136.974 59.1176 136.974 69.3123C136.974 80.0141 135.317 89.57 132.002 97.9799C128.687 106.39 124.269 113.611 118.743 119.64C113.221 125.673 106.845 130.303 99.6189 133.526C92.3963 136.75 84.9562 138.495 77.3085 138.749C69.6608 139.002 62.0527 137.685 54.4873 134.797C46.9253 131.91 39.9135 127.326 33.452 121.037V135.571H33.4586Z" fill="black"/>
</svg>
