<svg width="20" height="14" viewBox="0 0 20 14" fill="none" xmlns="http://www.w3.org/2000/svg">
<g id="sound">
<path id="Vector" d="M11 0.74C10.9827 0.674596 10.9593 0.610978 10.93 0.55C10.93 0.55 10.93 0.55 10.93 0.49C10.93 0.43 10.87 0.43 10.85 0.4C10.8113 0.343109 10.7641 0.292515 10.71 0.25L10.56 0.14C10.5028 0.107474 10.4425 0.0806779 10.38 0.0599999H10.18L10 0H9.93H9.74L9.55 0.0700002H9.49L4.72 3H3C2.20435 3 1.44129 3.31607 0.87868 3.87868C0.316071 4.44129 0 5.20435 0 6V8C0 8.79565 0.316071 9.55871 0.87868 10.1213C1.44129 10.6839 2.20435 11 3 11H4.72L9.49 13.86H9.55L9.74 13.93H9.93H10H10.11H10.31C10.3725 13.9093 10.4328 13.8825 10.49 13.85L10.64 13.74C10.6941 13.6975 10.7413 13.6469 10.78 13.59C10.78 13.59 10.84 13.54 10.86 13.5C10.88 13.46 10.86 13.5 10.86 13.44C10.8893 13.379 10.9127 13.3154 10.93 13.25C10.9347 13.1868 10.9347 13.1232 10.93 13.06L11 13V1C11 1 11 1 11 0.93C11.0047 0.866753 11.0047 0.803247 11 0.74ZM2 8V6C2 5.73478 2.10536 5.48043 2.29289 5.29289C2.48043 5.10536 2.73478 5 3 5H5.07H5.26L5.45 4.93H5.51L9 2.77V11.23L5.51 9.14H5.45L5.26 9.07H5.07H3C2.86257 9.07034 2.72655 9.04235 2.60043 8.98777C2.4743 8.9332 2.36078 8.85321 2.26695 8.75281C2.17311 8.6524 2.10098 8.53374 2.05505 8.40421C2.00912 8.27469 1.99038 8.13709 2 8ZM20 7C20.0163 9.38738 19.2389 11.7125 17.79 13.61C17.6269 13.8195 17.3872 13.9557 17.1237 13.9885C16.8603 14.0213 16.5945 13.9481 16.385 13.785C16.1755 13.6219 16.0393 13.3822 16.0065 13.1187C15.9737 12.8553 16.0469 12.5895 16.21 12.38C17.3893 10.8361 18.0193 8.94266 18 7C18.0194 5.06039 17.3893 3.17006 16.21 1.63C16.1286 1.52586 16.0686 1.40662 16.0336 1.27916C15.9985 1.15171 15.9891 1.01857 16.0059 0.88745C16.0226 0.75633 16.0652 0.629829 16.1311 0.515264C16.197 0.400699 16.285 0.300343 16.39 0.22C16.5997 0.05871 16.8648 -0.0129077 17.1272 0.0208292C17.3896 0.0545661 17.6279 0.190908 17.79 0.4C19.2389 2.29369 20.0164 4.61567 20 7ZM14.85 3.26C15.5938 4.36548 15.991 5.66761 15.991 7C15.991 8.33239 15.5938 9.63452 14.85 10.74C14.7867 10.8652 14.6978 10.9756 14.5891 11.0642C14.4803 11.1527 14.3542 11.2174 14.2188 11.254C14.0835 11.2907 13.9419 11.2984 13.8033 11.2768C13.6648 11.2552 13.5323 11.2046 13.4146 11.1285C13.2968 11.0523 13.1964 10.9522 13.1198 10.8348C13.0432 10.7173 12.9922 10.585 12.9701 10.4465C12.948 10.308 12.9552 10.1664 12.9914 10.0309C13.0276 9.89543 13.0918 9.76905 13.18 9.66C13.6996 8.86882 13.984 7.94641 14 7C13.9869 6.05458 13.7061 5.13225 13.19 4.34C13.1018 4.23095 13.0376 4.10457 13.0014 3.96908C12.9652 3.83358 12.958 3.69199 12.9801 3.55351C13.0022 3.41502 13.0532 3.28274 13.1298 3.16525C13.2064 3.04776 13.3068 2.94768 13.4246 2.87153C13.5423 2.79537 13.6748 2.74484 13.8133 2.7232C13.9519 2.70157 14.0935 2.70932 14.2288 2.74596C14.3642 2.78259 14.4903 2.84729 14.5991 2.93585C14.7078 3.02441 14.7967 3.13485 14.86 3.26H14.85Z" fill="#222221"/>
</g>
</svg>
